HIERARCHY
ROOT Hips
{
	OFFSET 0.00000 0.00000 0.00000
	CHANNELS 6 Xposition Yposition Zposition Zrotation Yrotation Xrotation 
	JOINT LHipJoint
	{
		OFFSET 0 0 0
		CHANNELS 3 Zrotation Yrotation Xrotation
		JOINT LeftUpLeg
		{
			OFFSET 1.36306 -1.79463 0.83929
			CHANNELS 3 Zrotation Yrotation Xrotation
			JOINT LeftLeg
			{
				OFFSET 2.44811 -6.72613 0.00000
				CHANNELS 3 Zrotation Yrotation Xrotation
				JOINT LeftFoot
				{
					OFFSET 2.56220 -7.03959 0.00000
					CHANNELS 3 Zrotation Yrotation Xrotation
					JOINT LeftToeBase
					{
						OFFSET 0.15764 -0.43311 2.32255
						CHANNELS 3 Zrotation Yrotation Xrotation
						End Site
						{
							OFFSET 0.00000 -0.00000 1.18966
						}
					}
				}
			}
		}
	}
	JOINT RHipJoint
	{
		OFFSET 0 0 0
		CHANNELS 3 Zrotation Yrotation Xrotation
		JOINT RightUpLeg
		{
			OFFSET -1.30552 -1.79463 0.83929
			CHANNELS 3 Zrotation Yrotation Xrotation
			JOINT RightLeg
			{
				OFFSET -2.54253 -6.98555 0.00000
				CHANNELS 3 Zrotation Yrotation Xrotation
				JOINT RightFoot
				{
					OFFSET -2.56826 -7.05623 0.00000
					CHANNELS 3 Zrotation Yrotation Xrotation
					JOINT RightToeBase
					{
						OFFSET -0.16473 -0.45259 2.36315
						CHANNELS 3 Zrotation Yrotation Xrotation
						End Site
						{
							OFFSET -0.00000 -0.00000 1.21082
						}
					}
				}
			}
		}
	}
	JOINT LowerBack
	{
		OFFSET 0 0 0
		CHANNELS 3 Zrotation Yrotation Xrotation
		JOINT Spine
		{
			OFFSET 0.02827 2.03559 -0.19338
			CHANNELS 3 Zrotation Yrotation Xrotation
			JOINT Spine1
			{
				OFFSET 0.05672 2.04885 -0.04275
				CHANNELS 3 Zrotation Yrotation Xrotation
				JOINT Neck
				{
					OFFSET 0 0 0
					CHANNELS 3 Zrotation Yrotation Xrotation
					JOINT Neck1
					{
						OFFSET -0.05417 1.74624 0.17202
						CHANNELS 3 Zrotation Yrotation Xrotation
						JOINT Head
						{
							OFFSET 0.10407 1.76136 -0.12397
							CHANNELS 3 Zrotation Yrotation Xrotation
							End Site
							{
								OFFSET 0.03720 1.77044 -0.06241
							}
						}
					}
				}
				JOINT LeftShoulder
				{
					OFFSET 0 0 0
					CHANNELS 3 Zrotation Yrotation Xrotation
					JOINT LeftArm
					{
						OFFSET 3.36241 1.20089 -0.31121
						CHANNELS 3 Zrotation Yrotation Xrotation
						JOINT LeftForeArm
						{
							OFFSET 4.98300 -0.00000 -0.00000
							CHANNELS 3 Zrotation Yrotation Xrotation
							JOINT LeftHand
							{
								OFFSET 3.48356 -0.00000 -0.00000
								CHANNELS 3 Zrotation Yrotation Xrotation
								JOINT LeftFingerBase
								{
									OFFSET 0 0 0
									CHANNELS 3 Zrotation Yrotation Xrotation
									JOINT LeftHandIndex1
									{
										OFFSET 0.71526 -0.00000 -0.00000
										CHANNELS 3 Zrotation Yrotation Xrotation
										End Site
										{
											OFFSET 0.57666 -0.00000 -0.00000
										}
									}
								}
								JOINT LThumb
								{
									OFFSET 0 0 0
									CHANNELS 3 Zrotation Yrotation Xrotation
									End Site
									{
										OFFSET 0.58547 -0.00000 0.58547
									}
								}
							}
						}
					}
				}
				JOINT RightShoulder
				{
					OFFSET 0 0 0
					CHANNELS 3 Zrotation Yrotation Xrotation
					JOINT RightArm
					{
						OFFSET -3.13660 1.37405 -0.40465
						CHANNELS 3 Zrotation Yrotation Xrotation
						JOINT RightForeArm
						{
							OFFSET -5.24190 -0.00000 -0.00000
							CHANNELS 3 Zrotation Yrotation Xrotation
							JOINT RightHand
							{
								OFFSET -3.44417 -0.00000 -0.00000
								CHANNELS 3 Zrotation Yrotation Xrotation
								JOINT RightFingerBase
								{
									OFFSET 0 0 0
									CHANNELS 3 Zrotation Yrotation Xrotation
									JOINT RightHandIndex1
									{
										OFFSET -0.62253 -0.00000 -0.00000
										CHANNELS 3 Zrotation Yrotation Xrotation
										End Site
										{
											OFFSET -0.50190 -0.00000 -0.00000
										}
									}
								}
								JOINT RThumb
								{
									OFFSET 0 0 0
									CHANNELS 3 Zrotation Yrotation Xrotation
									End Site
									{
										OFFSET -0.50956 -0.00000 0.50956
									}
								}
							}
						}
					}
				}
			}
		}
	}
}
MOTION
Frames: 6
Frame Time: .0083333
12.9136 8.1072 -0.6121 -177.6170 -1.5380 125.0280 0.0000 0.0000 0.0000 9.2707 9.1838 -49.7183 32.4213 15.8005 128.9693 -1.4341 -23.5784 -3.4964 0.4215 -4.1670 -11.5468 0.0000 0.0000 0.0000 15.8716 -2.5821 -46.7169 -29.6395 -17.6077 119.3134 -0.6892 0.4101 -15.5528 -1.7416 -8.3058 23.6468 -0.3341 1.8128 35.5165 2.1924 0.5623 5.5051 2.4791 -0.5575 -11.8748 -5.9465 -1.1410 8.0483 6.9098 -3.8986 12.7885 3.3297 -2.6554 3.0487 0.0000 0.0000 0.0000 47.6401 -61.9616 -73.8509 30.4302 -41.2593 -11.6923 -0.0000 -0.0000 5.0295 7.8212 4.7615 0.6533 -7.1250 0.0000 -0.0000 -15.4557 34.4469 4.1300 0.0000 0.0000 0.0000 -58.1489 58.8212 -88.4153 -25.0555 36.2607 -8.3227 0.0000 0.0000 3.0845 -0.8562 -22.5285 0.3281 7.1250 -0.0000 -0.0000 27.7210 -50.3272 -3.9024
12.9133 8.1066 -0.8400 -177.2710 -1.5740 124.5050 0.0000 0.0000 0.0000 9.3011 8.6958 -48.8741 32.0150 16.1082 127.4913 -1.6328 -24.1824 -1.9178 0.2689 -3.3357 -9.2148 0.0000 0.0000 0.0000 15.9824 -3.1501 -45.6659 -29.9936 -17.4135 120.4902 -0.7966 0.5513 -16.6901 -1.4935 -7.7201 21.8671 -0.1086 1.8536 34.9939 2.5121 0.7061 5.7701 2.6367 -0.5177 -11.3860 -5.9921 -1.2158 8.0855 6.7916 -3.9871 12.7972 3.2966 -2.7014 3.0498 -0.0000 -0.0000 0.0000 47.7627 -61.5033 -73.7474 30.4848 -41.3053 -11.7283 -0.0000 -0.0000 4.0682 7.5957 5.0624 0.6742 -7.1250 0.0000 -0.0000 -15.6956 34.7282 4.0870 -0.0000 -0.0000 0.0000 -58.2737 58.1409 -88.0007 -25.2399 36.4482 -8.4320 0.0000 0.0000 3.1456 -0.3522 -22.8518 0.1368 7.1250 -0.0000 -0.0000 28.3630 -50.5336 -4.1590
12.9116 8.1165 -1.0636 -177.5200 -2.4311 123.9820 0.0000 0.0000 0.0000 7.7717 7.7445 -47.7930 31.6118 16.3975 126.0507 -1.6704 -24.3922 -1.8261 0.1827 -2.7533 -7.5928 0.0000 0.0000 0.0000 14.6319 -4.1004 -44.6877 -30.3860 -17.1870 121.8097 -0.8928 1.1503 -17.5062 -1.2620 -7.1210 20.0743 -0.7379 1.9444 34.7440 2.4446 0.5869 5.8872 2.9438 -0.5525 -11.1658 -6.3188 -1.1651 8.1156 6.9616 -3.9780 12.9314 3.4208 -2.7170 3.1055 0.0000 -0.0000 0.0000 47.5084 -60.9750 -73.0699 30.6087 -41.4094 -11.8102 -0.0000 -0.0000 3.2358 7.2796 5.3980 0.6885 -7.1250 0.0000 -0.0000 -16.0175 35.0374 4.0513 0.0000 -0.0000 0.0000 -58.5710 57.6980 -87.9647 -25.4155 36.6256 -8.5365 0.0000 0.0000 2.9266 0.0120 -22.9940 -0.0047 7.1250 -0.0000 -0.0000 28.7758 -50.6012 -4.2796
12.9118 8.1119 -1.2964 -177.8560 -3.6539 123.3960 0.0000 0.0000 0.0000 6.0181 7.0090 -46.8379 31.3306 16.5902 125.0603 -1.6383 -24.2948 -2.0838 0.1024 -2.0631 -5.6799 0.0000 0.0000 0.0000 12.6172 -5.5154 -43.8633 -30.8382 -16.9107 123.3519 -0.9821 1.9619 -18.1734 -1.0783 -6.6003 18.5366 -1.4898 2.0536 34.7533 2.1625 0.4389 5.8973 3.1004 -0.5878 -11.1568 -6.5215 -1.1204 8.5388 7.3113 -4.0042 12.8299 3.5897 -2.7515 3.0136 0.0000 0.0000 0.0000 47.6767 -60.6264 -72.5246 30.6896 -41.4772 -11.8637 -0.0000 -0.0000 2.3016 6.9087 5.7450 0.6949 -7.1250 0.0000 -0.0000 -16.3885 35.3533 4.0206 0.0000 0.0000 0.0000 -58.0945 57.3137 -87.3896 -25.6940 36.9050 -8.7033 0.0000 0.0000 2.6446 0.1813 -23.0223 -0.0709 7.1250 -0.0000 -0.0000 28.9457 -50.5993 -4.3075
12.9109 8.0992 -1.5354 -177.9170 -4.8016 122.9380 0.0000 0.0000 0.0000 4.7561 6.6776 -46.2036 31.2207 16.6636 124.6764 -1.5433 -23.5504 -1.8709 0.0188 -0.8861 -2.4355 0.0000 0.0000 0.0000 10.7580 -7.1003 -43.1668 -31.2873 -16.6193 124.9088 -1.0788 2.7742 -18.9009 -0.9373 -6.1666 17.2686 -2.2591 2.2098 34.6464 2.1748 0.4110 5.8313 3.5339 -0.5539 -11.2002 -6.7344 -1.0875 9.2458 7.7655 -4.0853 12.8108 3.4657 -2.7939 2.5788 -0.0000 0.0000 0.0000 47.7629 -60.3669 -71.9072 30.6264 -41.4243 -11.8219 -0.0000 -0.0000 0.9378 6.8701 6.1100 0.7347 -7.1250 0.0000 -0.0000 -16.4977 35.7035 3.9027 -0.0000 0.0000 0.0000 -57.4727 56.8250 -86.1724 -26.0047 37.2134 -8.8905 0.0000 0.0000 2.3912 -0.0428 -23.2285 0.0169 7.1250 -0.0000 -0.0000 28.8644 -50.8154 -4.4560
12.9013 8.0944 -1.7759 -177.5980 -5.3656 122.4940 0.0000 0.0000 0.0000 4.6249 6.8826 -45.4584 31.2770 16.6261 124.8730 -1.4395 -22.8506 -1.9476 0.0027 0.3365 0.9246 0.0000 0.0000 0.0000 9.6966 -8.5584 -42.1295 -31.6604 -16.3634 126.2232 -1.1981 3.6267 -19.8061 -0.8759 -5.9666 16.6876 -2.1940 2.0948 34.2108 2.2047 0.3186 5.9384 3.5607 -0.5964 -10.9058 -6.9769 -1.0082 9.6721 8.0707 -4.0614 12.6976 3.6087 -2.8053 2.4833 -0.0000 0.0000 0.0000 47.9203 -59.7829 -71.1208 30.5692 -41.3763 -11.7841 -0.0000 0.0000 -0.4918 7.1044 6.5339 0.8125 -7.1250 0.0000 -0.0000 -16.3999 36.1263 3.7020 -0.0000 0.0000 0.0000 -57.3139 56.3946 -85.8797 -26.3014 37.5048 -9.0705 0.0000 0.0000 2.6012 -0.0618 -23.7315 0.0249 7.1250 -0.0000 -0.0000 29.1489 -51.2582 -4.8430
